<?xml version="1.0" encoding="utf-8"?>
<!-- Generator: Adobe Illustrator 16.0.0, SVG Export Plug-In . SVG Version: 6.00 Build 0)  -->
<!DOCTYPE svg PUBLIC "-//W3C//DTD SVG 1.1//EN" "http://www.w3.org/Graphics/SVG/1.1/DTD/svg11.dtd">
<svg version="1.1" id="Layer_1" xmlns="http://www.w3.org/2000/svg" xmlns:xlink="http://www.w3.org/1999/xlink" x="0px" y="0px"
	 width="704.792px" height="620.36px" viewBox="0 0 704.792 620.36" enable-background="new 0 0 704.792 620.36"
	 xml:space="preserve">
<path fill-rule="evenodd" clip-rule="evenodd" d="M327.176,244.057c-6.833,7.53-13.931,14.841-20.436,22.645
	c-8.875,10.646-17.196,21.753-25.992,32.469c-2.072,2.525-5.133,4.226-7.658,6.4c-1.207,1.04-2.41,2.175-3.295,3.483
	c-7.414,10.944-14.924,21.831-22.064,32.953c-5.982,9.317-11.603,18.874-17.188,28.438c-2.164,3.705-6.5,5.895-11.162,4.939
	c-7.217-1.479-11.371-7.435-11.862-16.511c-0.733-13.549,0.622-26.902,2.971-40.231c6.288-35.669,14.317-70.903,24.914-105.566
	c9.838-32.179,24.935-61.968,40.437-91.615c2.128-4.07,3.827-8.362,5.771-12.529c0.386-0.825,1.097-1.5,1.466-2.328
	c0.906-2.037,1.71-4.119,2.536-6.19c1.419-3.562,2.217-7.544,4.332-10.627c14.689-21.41,29.42-42.798,44.629-63.839
	c6.701-9.271,15.458-16.683,25.766-21.923c7.969-4.051,16.296-5.702,24.858-1.825c6.823,3.089,9.459,9.464,11.112,16.035
	c0.866,3.441-0.081,7.302,0.098,10.958c0.861,17.664-4.204,34.347-9.851,50.556c-13.482,38.698-32.957,74.303-58.682,106.354
	c-18.88,16.083-31.168,38.373-50.631,53.878c-9.471,7.547-15.079,17.227-18.4,28.776c-5.688,19.773-11.973,39.375-17.999,59.05
	c-0.141,0.459-0.185,0.946-0.486,2.544c4.531-6.413,8.337-12.001,12.352-17.435c7.088-9.595,13.995-19.349,21.536-28.579
	c12.246-14.987,24.776-29.753,37.547-44.295c4.16-4.737,9.158-8.886,14.289-12.588c8.291-5.981,15.824-6.296,22.255-1.808
	c7.576,5.287,11.486,14.178,8.62,23.359c-2.77,8.872-7.002,17.292-10.683,25.872c-7.371,17.186-14.807,34.343-22.195,51.521
	c-0.387,0.901-0.585,1.883,0.117,2.571c0.389,0.948,1.263,2.002,1.086,2.83c-0.965,4.502-2.35,8.915-3.287,13.422
	c-1.339,6.438-2.788,12.893-3.479,19.415c-0.497,4.679,2.719,6.677,6.646,4.039c4.827-3.241,9.49-7.001,13.395-11.292
	c14.955-16.44,29.577-33.184,44.325-49.813c3.314-3.737,6.482-7.624,10.041-11.111c1.023-1.001,3.181-0.845,4.817-1.22
	c0.04,1.428,0.597,3.11,0.038,4.244c-4.18,8.487-8.027,17.211-13.023,25.209c-11.177,17.889-22.714,35.566-34.615,52.981
	c-4.898,7.169-10.695,13.854-16.833,20.012c-7.558,7.581-17.06,9.029-26.004,3.245c-6.795-4.394-13.568-9.905-18.064-16.483
	c-5.05-7.389-7.445-16.605-5.712-26.021c5.031-27.336,13.266-53.688,28.482-77.074c7.49-11.51,9.589-24.871,16.638-36.28
	C328.157,244.732,327.667,244.394,327.176,244.057z M276.62,219.485c0.298,0.239,0.596,0.478,0.894,0.716
	c0.25-0.551,0.394-1.191,0.766-1.643c12.135-14.709,24.645-29.127,36.303-44.205c6.095-7.884,10.89-16.811,15.936-25.464
	c9.74-16.699,19.802-33.249,28.693-50.396c9.896-19.085,17.485-39.195,21.775-60.372c0.706-3.481,0.785-7.231,0.362-10.762
	c-0.577-4.823-4.418-6.24-8.044-3.137c-2.061,1.763-3.928,3.892-5.41,6.164c-4.294,6.58-8.701,13.125-12.436,20.025
	c-12.472,23.041-25.007,46.06-36.861,69.419c-8.664,17.073-19.128,33.333-24.156,52.157c-1.761,6.593-4.732,12.863-7.155,19.278
	C283.733,200.673,280.176,210.079,276.62,219.485z M351.274,42.728c-0.353-0.195-0.706-0.389-1.059-0.583
	c-0.804,1.378-1.667,2.726-2.404,4.139c-14.354,27.524-28.185,55.335-43.187,82.5c-13.343,24.161-22.935,49.771-32.01,75.647
	c-2.649,7.555-4.241,15.48-6.317,23.237c0.309,0.092,0.618,0.184,0.928,0.276c0.376-1.027,0.724-2.066,1.135-3.08
	c10.006-24.705,19.116-49.823,30.26-74.004c13.979-30.334,29.671-59.876,44.515-89.814C346.099,55.065,348.574,48.84,351.274,42.728
	z"/>
<path fill-rule="evenodd" clip-rule="evenodd" d="M349.194,420.593c-0.634,0.907-0.991,1.419-1.349,1.932
	c-0.342-0.051-0.684-0.102-1.026-0.153c0.207-2.447,0.085-4.978,0.672-7.331c3.228-12.925,11.33-22.658,21.199-31.009
	c11.056-9.356,22.497-18.189,35.37-25.059c9.979-5.325,10.74-8.064,7.738-19.065c-3.046-11.168-7.009-22.293-8.226-33.686
	c-0.938-8.792-2.108-17.402-3.868-26.056c-1.125-5.535-1.392-11.524-0.617-17.113c2.002-14.438,11.312-23.612,24.065-29.221
	c8.546-3.759,17.008,3.09,15.998,12.376c-0.39,3.568-1.254,7.084-2.605,10.651c-0.209-0.475-0.418-0.951-0.787-1.791
	c-4.581,9.086-5.653,17.859-2.524,27.674c2.004,6.285,4.308,12.9,3.129,19.966c-0.364,2.187,0.712,4.636,1.223,6.943
	c1.726,7.792,3.586,15.556,5.192,23.371c0.523,2.547,1.579,3.258,3.816,2.084c19.426-10.184,39.521-19.223,56.552-33.479
	c3.14-2.629,6.56-5.016,10.13-7.014c4.793-2.683,8.761-0.512,8.596,4.958c-0.096,3.164-1.287,6.688-3.075,9.307
	c-2.201,3.223-5.198,6.173-8.44,8.373c-15.175,10.293-30.498,20.371-45.897,30.326c-3.745,2.421-8.026,3.999-11.977,6.121
	c-3.134,1.684-4.403,4.008-3.756,7.97c2.609,15.971,3.959,32.081-0.507,47.917c-5.375,19.062-15.823,34.324-35.341,41.132
	c-15.914,5.551-31.821,4.224-46.899-3.269C355.28,442.13,348.814,433.607,349.194,420.593z M415.559,373.028
	c-0.409-0.322-0.817-0.645-1.225-0.967c-1.619,1.321-3.172,2.735-4.869,3.947c-7.306,5.219-14.669,10.359-21.985,15.563
	c-8.957,6.372-16.803,13.69-21.238,24.102c-4.539,10.653-1.537,15.593,9.902,14.552c5.956-0.541,11.683-3.254,17.628-4.38
	c4.64-0.879,7.365-3.89,9.595-7.338c2.901-4.487,5.293-9.317,7.727-14.091C416.175,394.447,415.667,383.702,415.559,373.028z
	 M400.443,445.111c12.885-2.604,24.786-6.771,31.836-18.97C423.302,435.243,412.546,441.344,400.443,445.111z"/>
<path fill-rule="evenodd" clip-rule="evenodd" d="M666.44,610.797c0.855,0.63,1.764,1.201,2.56,1.9
	c6.283,5.521,13.669,6.38,21.465,4.799c7.108-1.44,11.3-6.372,11.893-13.977c0.327-4.199,0.059-8.446,0.059-13.453
	c-5.296,7.52-11.846,11.734-20.688,11.115c-5.857-0.409-10.798-2.915-14.574-7.49c-7.508-9.097-6.044-23.082,3.141-30.12
	c8.51-6.522,23.365-6.727,32.122,7.118c0.338-4.024,0.609-7.271,0.882-10.519c0.392-0.001,0.783-0.002,1.175-0.003
	c0.08,1.233,0.228,2.467,0.229,3.701c0.018,11.744-0.264,23.496,0.075,35.23c0.488,16.856-10.527,22.747-25.587,20.57
	c-5.533-0.8-10.056-3.61-13.505-7.928C665.936,611.427,666.188,611.111,666.44,610.797z M702.605,580.215
	c1.111-9.561-8.077-19.207-19.085-19.235c-10.769-0.026-18.866,8.035-19.066,18.916c-0.196,10.67,8.369,19.429,19.014,19.443
	C694.387,599.354,702.51,591.235,702.605,580.215z"/>
<path fill-rule="evenodd" clip-rule="evenodd" d="M50.919,600.478c0-12.047,0-24.093,0-36.432c-16.529,0-32.694,0-49.624,0
	c0,12.138,0,24.299,0,36.46c-0.432-0.013-0.864-0.024-1.295-0.037c0-24.96,0-49.922,0-74.883c0.415-0.027,0.829-0.057,1.243-0.084
	c0.645,5.808,0.201,11.703,0.28,17.549c0.083,6.087,0.019,12.176,0.019,18.417c16.546,0,32.625,0,49.314,0
	c0-12.018,0-23.984,0-35.951c0.422-0.063,0.844-0.125,1.266-0.188c0.276,0.975,0.791,1.948,0.792,2.924
	c0.045,23.242,0.046,46.486-0.006,69.729c-0.002,0.919-0.601,1.837-0.922,2.755C51.63,600.65,51.274,600.564,50.919,600.478z"/>
<path fill-rule="evenodd" clip-rule="evenodd" d="M135.292,560.275c0.145,2.875,0.291,5.749,0.479,9.481
	c3.987-6.084,8.854-9.825,15.621-10.359c7.063-0.559,11.654,2.322,14.823,9.429c4.075-6.373,9.776-9.581,17.205-9.484
	c7.467,0.097,12.179,4.711,12.235,12.15c0.066,8.742,0.026,17.486,0.002,26.23c-0.002,0.922-0.206,1.845-0.316,2.767
	c-0.345,0.062-0.69,0.121-1.035,0.182c-0.252-1.091-0.717-2.181-0.726-3.273c-0.062-8.118-0.003-16.237-0.044-24.356
	c-0.044-8.832-5.514-13.232-14.188-11.479c-7.87,1.592-13.437,8.084-13.593,16.113c-0.125,6.367-0.012,12.74-0.042,19.109
	c-0.006,1.245-0.186,2.489-0.285,3.733c-0.394,0.021-0.788,0.041-1.182,0.062c-0.148-1.206-0.417-2.413-0.423-3.619
	c-0.039-7.994,0.021-15.988-0.033-23.982c-0.059-8.569-5.519-13.015-13.989-11.481c-8.311,1.504-13.62,7.638-13.774,16.155
	c-0.118,6.493-0.003,12.989-0.058,19.484c-0.01,1.173-0.345,2.342-0.529,3.514c-0.375-0.05-0.749-0.101-1.122-0.15
	c0-13.396,0-26.789,0-40.184C134.643,560.303,134.967,560.289,135.292,560.275z"/>
<path fill-rule="evenodd" clip-rule="evenodd" d="M469.752,530.294c-1.227-0.331-2.476-0.601-3.678-1.004
	c-6.101-2.051-12.3-3.32-18.753-2.18c-5.284,0.935-9.675,3.342-12.238,8.282c-2.767,5.33-1.671,11.811,3.266,15.501
	c3.438,2.57,7.516,4.34,11.438,6.193c4.05,1.915,8.354,3.301,12.374,5.271c9.654,4.734,13.411,12.365,11.477,22.73
	c-1.637,8.776-9.376,15.381-19.151,16.211c-8.902,0.755-17.069-1.472-24.488-6.418c-0.64-0.428-1.066-1.175-1.593-1.773
	c0.252-0.309,0.503-0.617,0.754-0.926c1.115,0.6,2.238,1.184,3.345,1.799c7.963,4.423,16.258,7.09,25.436,4.504
	c8.226-2.317,13.01-7.98,13.874-16.194c0.823-7.838-2.525-14.097-10.179-17.919c-4.892-2.443-10.118-4.207-15.129-6.424
	c-2.838-1.255-5.751-2.516-8.273-4.282c-9.06-6.347-8.928-18.557,0.192-24.868c7.043-4.873,14.817-4.595,22.683-2.751
	c3.092,0.725,6.085,1.87,9.123,2.824C470.071,529.346,469.913,529.819,469.752,530.294z"/>
<path fill-rule="evenodd" clip-rule="evenodd" d="M111.459,570.794c0.303-4.048,0.548-7.317,0.792-10.587
	c0.311,0.016,0.622,0.031,0.932,0.046c0,13.428,0,26.854,0,40.282c-0.379,0.024-0.759,0.051-1.138,0.076c0-3.191,0-6.383,0-9.574
	c-0.287-0.152-0.574-0.305-0.862-0.457c-4.205,6.27-9.873,10.165-17.34,10.619c-7.472,0.453-13.717-2.315-18.279-8.335
	c-6.901-9.104-5.051-22.95,3.834-29.544C89.628,555.729,102.649,558.502,111.459,570.794z M111.595,580.032
	c1.181-8.269-7.359-18.97-18.935-19.055c-10.981-0.08-19.143,8.118-19.135,19.172c0.008,10.592,8.383,19.099,18.894,19.191
	C103.728,599.44,111.524,591.59,111.595,580.032z"/>
<path fill-rule="evenodd" clip-rule="evenodd" d="M331.243,580.305c-0.035,11.688-9.6,21.062-21.396,20.974
	c-11.827-0.087-20.864-9.138-20.913-20.944c-0.048-11.823,9.288-21.186,21.113-21.169
	C321.853,559.181,331.278,568.581,331.243,580.305z M309.982,599.339c10.532,0.005,19-8.498,19.01-19.087
	c0.01-10.484-8.619-19.262-18.947-19.273c-10.213-0.014-19.011,8.889-19.042,19.268
	C290.971,590.876,299.379,599.335,309.982,599.339z"/>
<path fill-rule="evenodd" clip-rule="evenodd" d="M527.511,619.554c2.327-5.316,4.816-10.571,6.886-15.987
	c0.618-1.618,0.646-3.943-0.046-5.505c-5.047-11.391-10.352-22.667-15.561-33.984c-0.547-1.187-1.007-2.413-1.507-3.62
	c0.327-0.221,0.651-0.441,0.979-0.661c0.727,0.989,1.641,1.893,2.149,2.984c4.742,10.161,9.411,20.356,14.112,30.538
	c0.614,1.331,1.288,2.635,2.236,4.563c0.866-1.768,1.529-3.006,2.094-4.288c4.514-10.265,8.988-20.547,13.54-30.794
	c0.486-1.094,1.387-2.003,2.095-2.997c0.338,0.215,0.676,0.431,1.014,0.646c-0.258,0.764-0.463,1.551-0.782,2.288
	c-7.891,18.169-15.778,36.341-23.73,54.483c-0.51,1.163-1.535,2.099-2.32,3.141C528.284,620.091,527.897,619.822,527.511,619.554z"
	/>
<path fill-rule="evenodd" clip-rule="evenodd" d="M614.582,600.505c-0.661-13.382-0.141-26.781-0.307-40.17
	c0.519-0.048,1.037-0.097,1.556-0.144c0.164,2.974,0.329,5.948,0.536,9.698c4.511-7.553,10.607-10.906,18.641-10.521
	c5.496,0.264,10.569,3.775,10.85,9.057c0.564,10.643,0.168,21.336,0.168,32.009c-0.33,0.08-0.661,0.161-0.991,0.242
	c-0.28-1.039-0.795-2.075-0.804-3.116c-0.068-7.86-0.338-15.737,0.032-23.582c0.543-11.517-8.6-15.068-17.342-11.538
	c-6.802,2.746-10.417,7.912-10.505,15.324c-0.075,6.363-0.02,12.729-0.021,19.093c0,1.19,0,2.382,0,3.572
	C615.79,600.454,615.185,600.48,614.582,600.505z"/>
<path fill-rule="evenodd" clip-rule="evenodd" d="M348.221,600.785c-0.37-0.668-1.06-1.335-1.063-2.004
	c-0.054-12.479-0.031-24.957,0.005-37.437c0-0.392,0.319-0.782,1.322-1.134c0.265,2.926,0.53,5.852,0.857,9.469
	c4.352-7.178,10.197-10.538,17.956-10.331c6.326,0.169,11.427,4.157,11.702,10.368c0.451,10.188,0.122,20.41,0.122,30.618
	c-0.376,0.125-0.752,0.248-1.127,0.373c-0.313-0.935-0.891-1.866-0.898-2.803c-0.072-7.986-0.368-15.989,0.037-23.956
	c0.552-10.856-7.96-15.032-17.035-11.646c-6.814,2.541-10.739,8.111-10.804,15.474c-0.056,6.364-0.013,12.729-0.014,19.094
	c0,1.198,0,2.397,0,3.596C348.928,600.572,348.575,600.679,348.221,600.785z"/>
<path fill-rule="evenodd" clip-rule="evenodd" d="M239.631,519.826c0.268,0.983,0.741,1.961,0.774,2.951
	c1.001,30.608,0.195,76.248-1.743,78.134c0-27.227,0-54.057,0-80.886C238.985,519.959,239.308,519.893,239.631,519.826z"/>
<path fill-rule="evenodd" clip-rule="evenodd" d="M570.005,600.479c0-26.809,0-53.619,0-80.429c0.356-0.075,0.714-0.15,1.071-0.226
	c0.272,1.063,0.772,2.125,0.781,3.19c0.064,8.489,0.036,16.979,0.036,25.47c0,16.23,0.014,32.462-0.029,48.691
	c-0.004,1.185-0.427,2.367-0.655,3.551C570.808,600.644,570.406,600.562,570.005,600.479z"/>
<path fill-rule="evenodd" clip-rule="evenodd" d="M264.451,561.212c0.569-6.881-0.287-12.951,0.566-18.876
	c0.505,0.015,1.009,0.029,1.514,0.044c0,5.978,0,11.955,0,18.492c4.865,0,9.236,0,13.607,0c0.024,0.479,0.047,0.957,0.071,1.436
	c-4.346,0-8.69,0-13.392,0c0,13.277,0,25.698,0,38.119c-0.457,0.089-0.913,0.177-1.369,0.266c-0.262-1.116-0.744-2.232-0.751-3.35
	c-0.059-9.98-0.034-19.962-0.035-29.943c0-1.359,0-2.719,0-4.419c-3.192-0.192-6.151-0.371-9.11-0.549
	c0-0.407,0.002-0.813,0.003-1.22C258.448,561.212,261.342,561.212,264.451,561.212z"/>
<path fill-rule="evenodd" clip-rule="evenodd" d="M494.882,562.971c-3.242-0.197-6.183-0.377-9.122-0.557
	c0.009-0.4,0.018-0.8,0.025-1.2c2.832,0,5.664,0,9.365,0c0-6.629,0-12.757,0-18.885c0.514-0.003,1.027-0.006,1.541-0.008
	c0,6.036,0,12.071,0,18.68c4.996,0,9.347,0,13.697,0c0.008,0.44,0.015,0.88,0.023,1.32c-4.271,0-8.543,0-13.347,0
	c0,13.193,0,25.671,0,38.147c-0.491,0.075-0.981,0.149-1.473,0.225c-0.237-1.165-0.673-2.33-0.679-3.496
	c-0.055-9.98-0.031-19.961-0.032-29.942C494.882,565.899,494.882,564.543,494.882,562.971z"/>
<path fill-rule="evenodd" clip-rule="evenodd" d="M217.677,600.912c-2.516-2.379-2.465-38.898,0-41.035
	C217.677,573.612,217.677,587.032,217.677,600.912z"/>
<path fill-rule="evenodd" clip-rule="evenodd" d="M592.489,559.724c2.305,2.67,2.303,38.608,0,41.243
	C592.489,587.092,592.489,573.69,592.489,559.724z"/>
<path fill-rule="evenodd" clip-rule="evenodd" d="M220.368,547.03c-1.492,1.167-2.387,2.404-3.197,2.351
	c-0.825-0.054-1.905-1.271-2.199-2.193c-0.147-0.463,1.181-1.964,1.88-1.989C217.774,545.164,218.734,546.116,220.368,547.03z"/>
<path fill-rule="evenodd" clip-rule="evenodd" d="M593.043,544.047c1.096,1.53,2.161,2.376,2.184,3.249
	c0.019,0.735-1.346,2.217-1.794,2.108c-0.975-0.234-2.248-1.151-2.464-2.021C590.795,546.681,591.992,545.639,593.043,544.047z"/>
</svg>
